<svg height="50" viewBox="0 0 512 512" width="50" xmlns="http://www.w3.org/2000/svg" xmlns:xlink="http://www.w3.org/1999/xlink"><linearGradient id="a" gradientTransform="matrix(1 0 0 -1 0 -16582)" gradientUnits="userSpaceOnUse" x1="0" x2="512" y1="-16838" y2="-16838"><stop offset="0" stop-color="#00f38d"/><stop offset="1" stop-color="#009eff"/></linearGradient><path d="m512 256c0 141.386719-114.613281 256-256 256s-256-114.613281-256-256 114.613281-256 256-256 256 114.613281 256 256zm0 0" fill="url(#a)"/><path d="m341.941406 226.191406c15.21875-15.632812 24.613282-36.96875 24.613282-60.457031 0-47.828125-38.910157-86.734375-86.734376-86.734375h-171.246093v30h39.894531v294h-39.894531v30h205.585937c58.046875 0 105.269532-47.222656 105.269532-105.265625 0-48.433594-32.878907-89.324219-77.488282-101.542969zm-163.472656-117.191406h101.351562c31.285157 0 56.734376 25.449219 56.734376 56.734375 0 31.28125-25.453126 56.730469-56.734376 56.730469h-101.351562zm135.691406 294h-135.691406v-150.535156h135.691406c41.503906 0 75.269532 33.765625 75.269532 75.269531 0 41.5-33.765626 75.265625-75.269532 75.265625zm0 0" fill="#fff"/></svg>